<svg width="125" height="38" viewBox="0 0 125 38" fill="none" xmlns="http://www.w3.org/2000/svg">
<path d="M0.264206 25V10.4545H3.33949V16.456H9.58239V10.4545H12.6506V25H9.58239V18.9915H3.33949V25H0.264206Z" fill="#27272a"/>
<path d="M20.1009 25.2131C18.9787 25.2131 18.0128 24.9858 17.2031 24.5312C16.3982 24.072 15.7779 23.4233 15.3423 22.5852C14.9067 21.7424 14.6889 20.7457 14.6889 19.5952C14.6889 18.473 14.9067 17.4882 15.3423 16.6406C15.7779 15.7931 16.3911 15.1326 17.1818 14.6591C17.9773 14.1856 18.91 13.9489 19.9801 13.9489C20.6998 13.9489 21.3698 14.0649 21.9901 14.2969C22.6151 14.5241 23.1596 14.8674 23.6236 15.3267C24.0923 15.786 24.4569 16.3636 24.7173 17.0597C24.9777 17.7509 25.108 18.5606 25.108 19.4886V20.3196H15.8963V18.4446H22.2599C22.2599 18.009 22.1652 17.6231 21.9759 17.2869C21.7865 16.9508 21.5237 16.688 21.1875 16.4986C20.8561 16.3044 20.4702 16.2074 20.0298 16.2074C19.5706 16.2074 19.1634 16.3139 18.8082 16.527C18.4579 16.7353 18.1832 17.017 17.9844 17.3722C17.7855 17.7225 17.6837 18.1132 17.679 18.544V20.3267C17.679 20.8665 17.7784 21.3329 17.9773 21.7258C18.1809 22.1188 18.4673 22.4219 18.8366 22.6349C19.206 22.848 19.6439 22.9545 20.1506 22.9545C20.4867 22.9545 20.7945 22.9072 21.0739 22.8125C21.3532 22.7178 21.5923 22.5758 21.7912 22.3864C21.9901 22.197 22.1416 21.965 22.2457 21.6903L25.044 21.875C24.902 22.5473 24.6108 23.1345 24.1705 23.6364C23.7348 24.1335 23.1714 24.5218 22.4801 24.8011C21.7936 25.0758 21.0005 25.2131 20.1009 25.2131Z" fill="#27272a"/>
<path d="M30.1932 25.206C29.4972 25.206 28.8769 25.0852 28.3324 24.8437C27.7879 24.5975 27.357 24.2353 27.0398 23.7571C26.7273 23.2741 26.571 22.6728 26.571 21.9531C26.571 21.3471 26.6823 20.8381 26.9048 20.4261C27.1274 20.0142 27.4304 19.6828 27.8139 19.4318C28.1974 19.1809 28.6331 18.9915 29.1207 18.8636C29.6132 18.7358 30.1293 18.6458 30.669 18.5937C31.3035 18.5275 31.8149 18.4659 32.2031 18.4091C32.5914 18.3475 32.8731 18.2576 33.0483 18.1392C33.2235 18.0208 33.3111 17.8456 33.3111 17.6136V17.571C33.3111 17.1212 33.169 16.7732 32.8849 16.527C32.6056 16.2808 32.2079 16.1577 31.6918 16.1577C31.1473 16.1577 30.714 16.2784 30.392 16.5199C30.0701 16.7566 29.857 17.0549 29.7528 17.4148L26.9545 17.1875C27.0966 16.5246 27.3759 15.9517 27.7926 15.4687C28.2093 14.9811 28.7467 14.607 29.4048 14.3466C30.0677 14.0814 30.8348 13.9489 31.706 13.9489C32.312 13.9489 32.892 14.0199 33.446 14.1619C34.0047 14.304 34.4995 14.5241 34.9304 14.8224C35.366 15.1207 35.7093 15.5043 35.9602 15.973C36.2112 16.437 36.3366 16.9934 36.3366 17.642V25H33.4673V23.4872H33.3821C33.2069 23.8281 32.9725 24.1288 32.679 24.3892C32.3854 24.6449 32.0327 24.8461 31.6207 24.9929C31.2088 25.1349 30.733 25.206 30.1932 25.206ZM31.0597 23.1179C31.5047 23.1179 31.8977 23.0303 32.2386 22.8551C32.5795 22.6752 32.8471 22.4337 33.0412 22.1307C33.2353 21.8276 33.3324 21.4844 33.3324 21.1008V19.9432C33.2377 20.0047 33.1075 20.0615 32.9418 20.1136C32.7808 20.161 32.5985 20.206 32.3949 20.2486C32.1913 20.2865 31.9877 20.322 31.7841 20.3551C31.5805 20.3835 31.3958 20.4096 31.2301 20.4332C30.875 20.4853 30.5649 20.5682 30.2997 20.6818C30.0346 20.7955 29.8286 20.9493 29.6818 21.1435C29.535 21.3329 29.4616 21.5696 29.4616 21.8537C29.4616 22.2656 29.6108 22.5805 29.9091 22.7983C30.2121 23.0114 30.5956 23.1179 31.0597 23.1179Z" fill="#27272a"/>
<path d="M42.7038 25.1776C41.8752 25.1776 41.1248 24.9645 40.4524 24.5383C39.7848 24.1075 39.2545 23.4754 38.8615 22.642C38.4732 21.804 38.2791 20.7765 38.2791 19.5597C38.2791 18.3097 38.4804 17.2704 38.8828 16.4418C39.2853 15.6084 39.8203 14.9858 40.4879 14.5739C41.1603 14.1572 41.8965 13.9489 42.6967 13.9489C43.3075 13.9489 43.8165 14.053 44.2237 14.2614C44.6357 14.465 44.9671 14.7206 45.218 15.0284C45.4737 15.3314 45.6679 15.6297 45.8004 15.9233H45.8928V10.4545H48.9112V25H45.9283V23.2528H45.8004C45.6584 23.5559 45.4572 23.8565 45.1967 24.1548C44.9411 24.4484 44.6072 24.6922 44.1953 24.8864C43.7881 25.0805 43.291 25.1776 42.7038 25.1776ZM43.6626 22.7699C44.1503 22.7699 44.5623 22.6373 44.8984 22.3722C45.2393 22.1023 45.4998 21.7258 45.6797 21.2429C45.8643 20.7599 45.9567 20.1941 45.9567 19.5455C45.9567 18.8968 45.8667 18.3333 45.6868 17.8551C45.5069 17.3769 45.2464 17.0076 44.9055 16.7472C44.5646 16.4867 44.1503 16.3565 43.6626 16.3565C43.1655 16.3565 42.7464 16.4915 42.4055 16.7614C42.0646 17.0312 41.8066 17.4053 41.6314 17.8835C41.4562 18.3617 41.3686 18.9157 41.3686 19.5455C41.3686 20.1799 41.4562 20.741 41.6314 21.2287C41.8113 21.7116 42.0694 22.0904 42.4055 22.3651C42.7464 22.6349 43.1655 22.7699 43.6626 22.7699Z" fill="#27272a"/>
<path d="M54.4244 10.4545V25H51.3988V10.4545H54.4244Z" fill="#27272a"/>
<path d="M61.8196 25.2131C60.6974 25.2131 59.7315 24.9858 58.9219 24.5312C58.117 24.072 57.4967 23.4233 57.0611 22.5852C56.6255 21.7424 56.4077 20.7457 56.4077 19.5952C56.4077 18.473 56.6255 17.4882 57.0611 16.6406C57.4967 15.7931 58.1099 15.1326 58.9006 14.6591C59.696 14.1856 60.6288 13.9489 61.6989 13.9489C62.4186 13.9489 63.0885 14.0649 63.7088 14.2969C64.3338 14.5241 64.8783 14.8674 65.3423 15.3267C65.8111 15.786 66.1757 16.3636 66.4361 17.0597C66.6965 17.7509 66.8267 18.5606 66.8267 19.4886V20.3196H57.6151V18.4446H63.9787C63.9787 18.009 63.884 17.6231 63.6946 17.2869C63.5052 16.9508 63.2424 16.688 62.9062 16.4986C62.5748 16.3044 62.1889 16.2074 61.7486 16.2074C61.2893 16.2074 60.8821 16.3139 60.527 16.527C60.1766 16.7353 59.902 17.017 59.7031 17.3722C59.5043 17.7225 59.4025 18.1132 59.3977 18.544V20.3267C59.3977 20.8665 59.4972 21.3329 59.696 21.7258C59.8996 22.1188 60.1861 22.4219 60.5554 22.6349C60.9247 22.848 61.3627 22.9545 61.8693 22.9545C62.2055 22.9545 62.5133 22.9072 62.7926 22.8125C63.072 22.7178 63.3111 22.5758 63.5099 22.3864C63.7088 22.197 63.8603 21.965 63.9645 21.6903L66.7628 21.875C66.6207 22.5473 66.3295 23.1345 65.8892 23.6364C65.4536 24.1335 64.8902 24.5218 64.1989 24.8011C63.5123 25.0758 62.7192 25.2131 61.8196 25.2131Z" fill="#27272a"/>
<path d="M77.8778 17.2017L75.108 17.3722C75.0606 17.1354 74.9588 16.9223 74.8026 16.733C74.6463 16.5388 74.4403 16.3849 74.1847 16.2713C73.9337 16.1529 73.633 16.0937 73.2827 16.0937C72.8139 16.0937 72.4186 16.1932 72.0966 16.392C71.7746 16.5862 71.6136 16.8466 71.6136 17.1733C71.6136 17.4337 71.7178 17.6539 71.9261 17.8338C72.1345 18.0137 72.492 18.1581 72.9986 18.267L74.973 18.6648C76.0336 18.8826 76.8243 19.233 77.3452 19.7159C77.866 20.1989 78.1264 20.8333 78.1264 21.6193C78.1264 22.3343 77.9157 22.9616 77.4943 23.5014C77.0777 24.0412 76.5047 24.4626 75.7756 24.7656C75.0511 25.0639 74.2154 25.2131 73.2685 25.2131C71.8243 25.2131 70.6738 24.9124 69.8168 24.3111C68.9645 23.705 68.465 22.8812 68.3182 21.8395L71.294 21.6832C71.384 22.1236 71.6018 22.4597 71.9474 22.6918C72.2931 22.919 72.7358 23.0327 73.2756 23.0327C73.8059 23.0327 74.232 22.9309 74.554 22.7273C74.8807 22.5189 75.0464 22.2514 75.0511 21.9247C75.0464 21.6501 74.9304 21.4252 74.7031 21.25C74.4759 21.0701 74.1255 20.9328 73.652 20.8381L71.7628 20.4616C70.6974 20.2486 69.9044 19.8793 69.3835 19.3537C68.8674 18.8281 68.6094 18.1581 68.6094 17.3437C68.6094 16.643 68.7988 16.0393 69.1776 15.5327C69.5611 15.026 70.0985 14.6354 70.7898 14.3608C71.4858 14.0862 72.3002 13.9489 73.233 13.9489C74.6108 13.9489 75.6951 14.2401 76.4858 14.8224C77.2812 15.4048 77.7453 16.1979 77.8778 17.2017Z" fill="#27272a"/>
<path d="M89.1083 17.2017L86.3384 17.3722C86.2911 17.1354 86.1893 16.9223 86.033 16.733C85.8768 16.5388 85.6708 16.3849 85.4151 16.2713C85.1642 16.1529 84.8635 16.0937 84.5131 16.0937C84.0444 16.0937 83.649 16.1932 83.3271 16.392C83.0051 16.5862 82.8441 16.8466 82.8441 17.1733C82.8441 17.4337 82.9483 17.6539 83.1566 17.8338C83.3649 18.0137 83.7224 18.1581 84.229 18.267L86.2035 18.6648C87.2641 18.8826 88.0548 19.233 88.5756 19.7159C89.0965 20.1989 89.3569 20.8333 89.3569 21.6193C89.3569 22.3343 89.1462 22.9616 88.7248 23.5014C88.3081 24.0412 87.7352 24.4626 87.006 24.7656C86.2816 25.0639 85.4459 25.2131 84.4989 25.2131C83.0548 25.2131 81.9042 24.9124 81.0472 24.3111C80.195 23.705 79.6954 22.8812 79.5487 21.8395L82.5245 21.6832C82.6145 22.1236 82.8323 22.4597 83.1779 22.6918C83.5236 22.919 83.9663 23.0327 84.506 23.0327C85.0363 23.0327 85.4625 22.9309 85.7844 22.7273C86.1112 22.5189 86.2769 22.2514 86.2816 21.9247C86.2769 21.6501 86.1609 21.4252 85.9336 21.25C85.7063 21.0701 85.3559 20.9328 84.8825 20.8381L82.9933 20.4616C81.9279 20.2486 81.1348 19.8793 80.614 19.3537C80.0979 18.8281 79.8398 18.1581 79.8398 17.3437C79.8398 16.643 80.0292 16.0393 80.408 15.5327C80.7916 15.026 81.329 14.6354 82.0202 14.3608C82.7163 14.0862 83.5307 13.9489 84.4634 13.9489C85.8413 13.9489 86.9255 14.2401 87.7163 14.8224C88.5117 15.4048 88.9757 16.1979 89.1083 17.2017Z" fill="#27272a"/>
<path d="M124.245 12.1469L100.678 0.506116C100.111 0.226169 99.4268 0.4579 99.1469 1.02468L87.5061 24.5923C87.2262 25.1591 87.4579 25.8431 88.0247 26.1231L111.592 37.7638C112.159 38.0438 112.843 37.812 113.123 37.2453L124.764 13.6777C125.044 13.1109 124.812 12.4268 124.245 12.1469ZM110.149 21.4681L101.284 23.3353C100.955 23.404 100.688 23.0651 100.837 22.7641L105.796 12.7254C105.944 12.4244 106.377 12.4271 106.521 12.7331L110.427 20.9045C110.453 20.9592 110.467 21.019 110.466 21.0795C110.466 21.14 110.452 21.1996 110.425 21.2539C110.398 21.3082 110.359 21.3556 110.312 21.3927C110.264 21.4298 110.208 21.4556 110.149 21.4681Z" fill="#27272a"/>
</svg>
